<svg xmlns="http://www.w3.org/2000/svg" width="760" height="760" viewBox="-2 -2 38 38">
<!-- <svg xmlns="http://www.w3.org/2000/svg" width="680" height="680" viewBox="0 0 34 34"> -->
  <title>九叠篆“颐”设计</title>

  <!-- <rect x="0" y="0" width="34" height="34" fill="#ffffff"/> -->

  <path d="M 3 30 L 15 30 C 15.65 30 16 30.35 16 31 C
           16 31.65 15.65 32 15 32 L 1 32 C 0.35 32 0 32.35 0 33 C 0 33.65 0.35
           34 1 34 L 15 34 C 16.95 34 18 32.95 18 31 C 18 29.05 16.95 28 15 28
           L 13 28 C 12.35 28 12 27.65 12 27 C 12 26.35 12.35 26 13 26 L 15 26
           C 16.95 26 18 24.95 18 23 C 18 21.05 16.95 20 15 20 C 14.35 20 14
           19.65 14 19 C 14 18.35 14.35 18 15 18 C 16.95 18 18 16.95 18 15 C 18
           13.05 16.95 12 15 12 C 14.35 12 14 11.65 14 11 C 14 10.35 14.35 10
           15 10 C 16.95 10 18 8.95 18 7 C 18 5.05 16.95 4 15 4 L 13 4 C 12.35
           4 12 3.65 12 3 C 12 2.35 12.35 2 13 2 L 17 2 C 17.65 2 18 1.65 18 1
           C 18 0.35 17.65 0 17 0 L 3 0 C 1.05 0 0 1.05 0 3 L 0 27 C 0 28.95
           1.05 30 3 30 Z M 6 23 C 6 22.35 6.35 22 7 22 C 8.95 22 10 20.95 10
           19 C 10 17.05 8.95 16 7 16 C 6.35 16 6 15.65 6 15 C 6 14.35 6.35 14
           7 14 C 8.95 14 10 12.95 10 11 C 10 9.05 8.95 8 7 8 C 6.35 8 6 7.65 6
           7 C 6 6.35 6.35 6 7 6 L 15 6 C 15.65 6 16 6.35 16 7 C 16 7.65 15.65
           8 15 8 C 13.05 8 12 9.05 12 11 C 12 12.95 13.05 14 15 14 C 15.65 14
           16 14.35 16 15 C 16 15.65 15.65 16 15 16 C 13.05 16 12 17.05 12 19 C
           12 20.95 13.05 22 15 22 C 15.65 22 16 22.35 16 23 C 16 23.65 15.65
           24 15 24 L 7 24 C 6.35 24 6 23.65 6 23 Z M 2 27 L 2 3 C 2 2.35 2.35
           2 3 2 L 9 2 C 9.65 2 10 2.35 10 3 C 10 3.65 9.65 4 9 4 L 7 4 C 5.05
           4 4 5.05 4 7 C 4 8.95 5.05 10 7 10 C 7.65 10 8 10.35 8 11 C 8 11.65
           7.65 12 7 12 C 5.05 12 4 13.05 4 15 C 4 16.95 5.05 18 7 18 C 7.65 18
           8 18.35 8 19 C 8 19.65 7.65 20 7 20 C 5.05 20 4 21.05 4 23 C 4 24.95
           5.05 26 7 26 L 9 26 C 9.65 26 10 26.35 10 27 C 10 27.65 9.65 28 9 28
           L 3 28 C 2.35 28 2 27.65 2 27 Z M 23 18 L 25 18 C 25.65 18 26 18.35
           26 19 C 26 19.65 25.65 20 25 20 L 23 20 C 21.05 20 20 21.05 20 23 L
           20 33 C 20 33.65 20.35 34 21 34 C 21.65 34 22 33.65 22 33 L 22 23 C
           22 22.35 22.35 22 23 22 L 31 22 C 31.65 22 32 22.35 32 23 C 32 23.65
           31.65 24 31 24 L 27 24 C 25.05 24 24 25.05 24 27 C 24 28.95 25.05 30
           27 30 L 31 30 C 31.65 30 32 30.35 32 31 C 32 31.65 31.65 32 31 32 L
           25 32 C 24.35 32 24 32.35 24 33 C 24 33.65 24.35 34 25 34 L 31 34 C
           32.95 34 34 32.95 34 31 C 34 29.05 32.95 28 31 28 L 27 28 C 26.35 28
           26 27.65 26 27 C 26 26.35 26.35 26 27 26 L 31 26 C 32.95 26 34 24.95
           34 23 C 34 21.05 32.95 20 31 20 L 29 20 C 28.35 20 28 19.65 28 19 C
           28 18.35 28.35 18 29 18 L 31 18 C 32.95 18 34 16.95 34 15 L 34 7 C
           34 5.05 32.95 4 31 4 L 29 4 C 28.35 4 28 3.65 28 3 C 28 2.35 28.35 2
           29 2 L 33 2 C 33.65 2 34 1.65 34 1 C 34 0.35 33.65 0 33 0 L 23 0 C
           21.05 0 20 1.05 20 3 L 20 15 C 20 16.95 21.05 18 23 18 Z M 23 6 L 31
           6 C 31.65 6 32 6.35 32 7 C 32 7.65 31.65 8 31 8 L 23 8 C 22.35 8 22
           7.65 22 7 C 22 6.35 22.35 6 23 6 Z M 23 2 L 25 2 C 25.65 2 26 2.35
           26 3 C 26 3.65 25.65 4 25 4 L 23 4 C 22.35 4 22 3.65 22 3 C 22 2.35
           22.35 2 23 2 Z M 32 11 C 32 11.65 31.65 12 31 12 L 23 12 C 22.35 12
           22 11.65 22 11 C 22 10.35 22.35 10 23 10 L 31 10 C 31.65 10 32 10.35
           32 11 Z M 22 15 C 22 14.35 22.35 14 23 14 L 31 14 C 31.65 14 32
           14.35 32 15 C 32 15.65 31.65 16 31 16 L 23 16 C 22.35 16 22 15.65 22
           15 Z" fill="#bf0000" fill-rule="evenodd" stroke="none"/>

</svg>
